<?xml version="1.0" encoding="UTF-8" standalone="no"?>
<!DOCTYPE svg PUBLIC "-//W3C//DTD SVG 1.1//EN"
 "http://www.w3.org/Graphics/SVG/1.1/DTD/svg11.dtd">
<!-- Generated by graphviz version 2.26.3 (20100126.1600)
 -->
<!-- Title: controllers_diagram Pages: 1 -->
<svg width="356pt" height="285pt"
 viewBox="0.00 0.00 356.00 285.00" xmlns="http://www.w3.org/2000/svg" xmlns:xlink="http://www.w3.org/1999/xlink">
<g id="graph1" class="graph" transform="scale(1 1) rotate(0) translate(4 281)">
<title>controllers_diagram</title>
<polygon fill="none" stroke="none" points="-4,5 -4,-281 353,-281 353,5 -4,5"/>
<!-- _diagram_info -->
<g id="node1" class="node"><title>_diagram_info</title>
<text text-anchor="start" x="9" y="-78.3" font-family="Times Roman,serif" font-size="13.00">Controllers diagram</text>
<text text-anchor="start" x="9" y="-61.3" font-family="Times Roman,serif" font-size="13.00">Date: Dec 20 2016 &#45; 21:36</text>
<text text-anchor="start" x="9" y="-44.3" font-family="Times Roman,serif" font-size="13.00">Migration version: 20161221003458</text>
<text text-anchor="start" x="9" y="-27.3" font-family="Times Roman,serif" font-size="13.00">Generated by RailRoady 1.5.2</text>
<text text-anchor="start" x="9" y="-10.3" font-family="Times Roman,serif" font-size="13.00">http://railroady.prestonlee.com</text>
</g>
<!-- ApplicationController -->
<g id="node2" class="node"><title>ApplicationController</title>
<polyline fill="none" stroke="black" points="30,-171.5 167,-171.5 "/>
<path fill="none" stroke="black" d="M167,-171.5C173,-171.5 179,-177.5 179,-183.5"/>
<polyline fill="none" stroke="black" points="179,-183.5 179,-259.5 "/>
<path fill="none" stroke="black" d="M179,-259.5C179,-265.5 173,-271.5 167,-271.5"/>
<polyline fill="none" stroke="black" points="167,-271.5 30,-271.5 "/>
<path fill="none" stroke="black" d="M30,-271.5C24,-271.5 18,-265.5 18,-259.5"/>
<polyline fill="none" stroke="black" points="18,-259.5 18,-183.5 "/>
<path fill="none" stroke="black" d="M18,-183.5C18,-177.5 24,-171.5 30,-171.5"/>
<text text-anchor="middle" x="98.5" y="-254.9" font-family="Times Roman,serif" font-size="14.00">ApplicationController</text>
<polyline fill="none" stroke="black" points="18,-245.5 179,-245.5 "/>
<polyline fill="none" stroke="black" points="18,-221.5 179,-221.5 "/>
<polyline fill="none" stroke="black" points="18,-197.5 179,-197.5 "/>
<text text-anchor="start" x="26" y="-180.9" font-family="Times Roman,serif" font-size="14.00">_layout</text>
</g>
<!-- PagesController -->
<g id="node3" class="node"><title>PagesController</title>
<polyline fill="none" stroke="black" points="234,-137.5 335,-137.5 "/>
<path fill="none" stroke="black" d="M335,-137.5C341,-137.5 347,-143.5 347,-149.5"/>
<polyline fill="none" stroke="black" points="347,-149.5 347,-263.5 "/>
<path fill="none" stroke="black" d="M347,-263.5C347,-269.5 341,-275.5 335,-275.5"/>
<polyline fill="none" stroke="black" points="335,-275.5 234,-275.5 "/>
<path fill="none" stroke="black" d="M234,-275.5C228,-275.5 222,-269.5 222,-263.5"/>
<polyline fill="none" stroke="black" points="222,-263.5 222,-149.5 "/>
<path fill="none" stroke="black" d="M222,-149.5C222,-143.5 228,-137.5 234,-137.5"/>
<text text-anchor="middle" x="284.5" y="-258.9" font-family="Times Roman,serif" font-size="14.00">PagesController</text>
<polyline fill="none" stroke="black" points="222,-249.5 347,-249.5 "/>
<text text-anchor="start" x="230" y="-232.9" font-family="Times Roman,serif" font-size="14.00">home</text>
<text text-anchor="start" x="230" y="-214.9" font-family="Times Roman,serif" font-size="14.00">livemap</text>
<text text-anchor="start" x="230" y="-196.9" font-family="Times Roman,serif" font-size="14.00">status</text>
<polyline fill="none" stroke="black" points="222,-187.5 347,-187.5 "/>
<polyline fill="none" stroke="black" points="222,-163.5 347,-163.5 "/>
<text text-anchor="start" x="230" y="-146.9" font-family="Times Roman,serif" font-size="14.00">_layout</text>
</g>
</g>
</svg>
