<?xml version="1.0" encoding="UTF-8" standalone="no"?>
<!DOCTYPE svg PUBLIC "-//W3C//DTD SVG 1.1//EN"
 "http://www.w3.org/Graphics/SVG/1.1/DTD/svg11.dtd">
<!-- Generated by graphviz version 2.26.3 (20100126.1600)
 -->
<!-- Title: models_diagram Pages: 1 -->
<svg width="669pt" height="324pt"
 viewBox="0.00 0.00 669.00 324.00" xmlns="http://www.w3.org/2000/svg" xmlns:xlink="http://www.w3.org/1999/xlink">
<g id="graph1" class="graph" transform="scale(1 1) rotate(0) translate(4 320)">
<title>models_diagram</title>
<polygon fill="none" stroke="none" points="-4,5 -4,-320 666,-320 666,5 -4,5"/>
<!-- _diagram_info -->
<g id="node1" class="node"><title>_diagram_info</title>
<text text-anchor="start" x="15" y="-299.8" font-family="Times Roman,serif" font-size="13.00">Models diagram</text>
<text text-anchor="start" x="15" y="-282.8" font-family="Times Roman,serif" font-size="13.00">Date: Dec 21 2016 &#45; 00:16</text>
<text text-anchor="start" x="15" y="-265.8" font-family="Times Roman,serif" font-size="13.00">Migration version: 20161221031330</text>
<text text-anchor="start" x="15" y="-248.8" font-family="Times Roman,serif" font-size="13.00">Generated by RailRoady 1.5.2</text>
<text text-anchor="start" x="15" y="-231.8" font-family="Times Roman,serif" font-size="13.00">http://railroady.prestonlee.com</text>
</g>
<!-- Category -->
<g id="node2" class="node"><title>Category</title>
<ellipse fill="none" stroke="black" cx="118" cy="-167" rx="56.0679" ry="18.3848"/>
<text text-anchor="middle" x="118" y="-163.4" font-family="Times Roman,serif" font-size="14.00">Category</text>
</g>
<!-- Product -->
<g id="node8" class="node"><title>Product</title>
<ellipse fill="none" stroke="black" cx="156" cy="-93" rx="48.9975" ry="18.3848"/>
<text text-anchor="middle" x="156" y="-89.4" font-family="Times Roman,serif" font-size="14.00">Product</text>
</g>
<!-- Category&#45;&gt;Product -->
<g id="edge4" class="edge"><title>Category&#45;&gt;Product</title>
<path fill="none" stroke="#f0d381" d="M132.035,-139.668C135.293,-133.325 138.759,-126.574 142.014,-120.235"/>
<polygon fill="#f0d381" stroke="#f0d381" points="131.961,-139.812 123.39,-146.652 129.677,-144.26 127.393,-148.708 127.393,-148.708 127.393,-148.708 129.677,-144.26 131.396,-150.764 131.961,-139.812 131.961,-139.812"/>
<polygon fill="#f0d381" stroke="#f0d381" points="142.015,-120.234 150.586,-113.394 144.299,-115.786 146.583,-111.338 146.583,-111.338 146.583,-111.338 144.299,-115.786 142.58,-109.283 142.015,-120.234 142.015,-120.234"/>
</g>
<!-- ProductCategory -->
<g id="node9" class="node"><title>ProductCategory</title>
<ellipse fill="none" stroke="black" cx="94" cy="-19" rx="94.0452" ry="18.3848"/>
<text text-anchor="middle" x="94" y="-15.4" font-family="Times Roman,serif" font-size="14.00">ProductCategory</text>
</g>
<!-- Category&#45;&gt;ProductCategory -->
<g id="edge2" class="edge"><title>Category&#45;&gt;ProductCategory</title>
<path fill="none" stroke="#d1aaab" d="M106.706,-141.018C103.285,-132 99.9271,-121.712 98,-112 93.7931,-90.7983 92.8902,-66.365 92.9873,-47.8641"/>
<ellipse fill="none" stroke="#d1aaab" cx="108.222" cy="-144.851" rx="4.00001" ry="4.00001"/>
<polygon fill="#d1aaab" stroke="#d1aaab" points="92.9893,-47.7247 97.642,-37.7948 93.0659,-42.7253 93.1425,-37.7259 93.1425,-37.7259 93.1425,-37.7259 93.0659,-42.7253 88.6431,-37.6569 92.9893,-47.7247 92.9893,-47.7247"/>
</g>
<!-- Order -->
<g id="node3" class="node"><title>Order</title>
<ellipse fill="none" stroke="black" cx="359" cy="-167" rx="39.0967" ry="18.3848"/>
<text text-anchor="middle" x="359" y="-163.4" font-family="Times Roman,serif" font-size="14.00">Order</text>
</g>
<!-- Payment -->
<g id="node4" class="node"><title>Payment</title>
<ellipse fill="none" stroke="black" cx="277" cy="-93" rx="53.9477" ry="18.3848"/>
<text text-anchor="middle" x="277" y="-89.4" font-family="Times Roman,serif" font-size="14.00">Payment</text>
</g>
<!-- Order&#45;&gt;Payment -->
<g id="edge14" class="edge"><title>Order&#45;&gt;Payment</title>
<path fill="none" stroke="#4b43ac" d="M334.642,-145.018C324.496,-135.862 312.712,-125.228 302.453,-115.969"/>
<ellipse fill="none" stroke="#4b43ac" cx="337.832" cy="-147.897" rx="4.00002" ry="4.00002"/>
<ellipse fill="#4b43ac" stroke="#4b43ac" cx="299.26" cy="-113.088" rx="4.00002" ry="4.00002"/>
</g>
<!-- OrderProduct -->
<g id="node7" class="node"><title>OrderProduct</title>
<ellipse fill="none" stroke="black" cx="292" cy="-19" rx="77.7817" ry="18.3848"/>
<text text-anchor="middle" x="292" y="-15.4" font-family="Times Roman,serif" font-size="14.00">OrderProduct</text>
</g>
<!-- Order&#45;&gt;OrderProduct -->
<g id="edge6" class="edge"><title>Order&#45;&gt;OrderProduct</title>
<path fill="none" stroke="#6bb290" d="M357.187,-140.215C355.031,-120.966 350.314,-94.8427 340,-74 334.75,-63.3901 326.94,-53.2006 319.139,-44.5371"/>
<ellipse fill="none" stroke="#6bb290" cx="357.591" cy="-144.289" rx="4" ry="4"/>
<polygon fill="#6bb290" stroke="#6bb290" points="318.921,-44.3069 315.319,-33.9495 315.485,-40.6743 312.049,-37.0416 312.049,-37.0416 312.049,-37.0416 315.485,-40.6743 308.78,-40.1338 318.921,-44.3069 318.921,-44.3069"/>
</g>
<!-- Order&#45;&gt;Product -->
<g id="edge8" class="edge"><title>Order&#45;&gt;Product</title>
<path fill="none" stroke="#61ce85" d="M318.204,-152.129C284.251,-139.752 235.972,-122.152 200.921,-109.375"/>
<polygon fill="#61ce85" stroke="#61ce85" points="318.331,-152.175 326.185,-159.828 323.029,-153.887 327.726,-155.6 327.726,-155.6 327.726,-155.6 323.029,-153.887 329.267,-151.372 318.331,-152.175 318.331,-152.175"/>
<polygon fill="#61ce85" stroke="#61ce85" points="200.803,-109.332 192.949,-101.679 196.106,-107.62 191.408,-105.907 191.408,-105.907 191.408,-105.907 196.106,-107.62 189.867,-110.135 200.803,-109.332 200.803,-109.332"/>
</g>
<!-- OrderEmployee -->
<g id="node11" class="node"><title>OrderEmployee</title>
<ellipse fill="none" stroke="black" cx="479" cy="-19" rx="86.9741" ry="18.3848"/>
<text text-anchor="middle" x="479" y="-15.4" font-family="Times Roman,serif" font-size="14.00">OrderEmployee</text>
</g>
<!-- Order&#45;&gt;OrderEmployee -->
<g id="edge10" class="edge"><title>Order&#45;&gt;OrderEmployee</title>
<path fill="none" stroke="#0875b2" d="M371.77,-141.71C382.254,-122.183 398.228,-95.0367 416,-74 425.259,-63.0407 436.756,-52.3474 447.384,-43.3477"/>
<ellipse fill="none" stroke="#0875b2" cx="369.897" cy="-145.255" rx="4.00002" ry="4.00002"/>
<polygon fill="#0875b2" stroke="#0875b2" points="447.58,-43.1862 458.156,-40.2893 451.435,-40.0027 455.291,-36.8192 455.291,-36.8192 455.291,-36.8192 451.435,-40.0027 452.426,-33.3492 447.58,-43.1862 447.58,-43.1862"/>
</g>
<!-- Employee -->
<g id="node12" class="node"><title>Employee</title>
<ellipse fill="none" stroke="black" cx="483" cy="-93" rx="58.1882" ry="18.3848"/>
<text text-anchor="middle" x="483" y="-89.4" font-family="Times Roman,serif" font-size="14.00">Employee</text>
</g>
<!-- Order&#45;&gt;Employee -->
<g id="edge12" class="edge"><title>Order&#45;&gt;Employee</title>
<path fill="none" stroke="#be592a" d="M392.201,-147.186C409.062,-137.124 429.577,-124.881 446.838,-114.581"/>
<polygon fill="#be592a" stroke="#be592a" points="392.086,-147.255 381.192,-148.516 387.792,-149.818 383.498,-152.38 383.498,-152.38 383.498,-152.38 387.792,-149.818 385.804,-156.244 392.086,-147.255 392.086,-147.255"/>
<polygon fill="#be592a" stroke="#be592a" points="446.944,-114.517 457.837,-113.257 451.237,-111.955 455.531,-109.393 455.531,-109.393 455.531,-109.393 451.237,-111.955 453.225,-105.529 446.944,-114.517 446.944,-114.517"/>
</g>
<!-- Zone -->
<g id="node5" class="node"><title>Zone</title>
<ellipse fill="none" stroke="black" cx="312" cy="-269" rx="36.7696" ry="18.3848"/>
<text text-anchor="middle" x="312" y="-265.4" font-family="Times Roman,serif" font-size="14.00">Zone</text>
</g>
<!-- Zone&#45;&gt;Order -->
<g id="edge16" class="edge"><title>Zone&#45;&gt;Order</title>
<path fill="none" stroke="#2336df" d="M323.81,-243.371C330.677,-228.468 339.331,-209.687 346.338,-194.479"/>
<ellipse fill="none" stroke="#2336df" cx="322.077" cy="-247.132" rx="4.00002" ry="4.00002"/>
<polygon fill="#2336df" stroke="#2336df" points="346.485,-194.16 354.757,-186.961 348.578,-189.619 350.67,-185.078 350.67,-185.078 350.67,-185.078 348.578,-189.619 346.583,-183.194 346.485,-194.16 346.485,-194.16"/>
</g>
<!-- ApplicationRecord -->
<g id="node6" class="node"><title>ApplicationRecord</title>
<ellipse fill="none" stroke="black" cx="563" cy="-269" rx="97.7889" ry="18.3848"/>
<text text-anchor="middle" x="563" y="-265.4" font-family="Times Roman,serif" font-size="14.00">ApplicationRecord</text>
</g>
<!-- Product&#45;&gt;OrderProduct -->
<g id="edge20" class="edge"><title>Product&#45;&gt;OrderProduct</title>
<path fill="none" stroke="#50115a" d="M191.213,-73.8398C209.722,-63.7691 232.49,-51.3804 251.701,-40.9275"/>
<ellipse fill="none" stroke="#50115a" cx="187.693" cy="-75.7553" rx="4.00002" ry="4.00002"/>
<polygon fill="#50115a" stroke="#50115a" points="251.745,-40.9033 262.68,-40.0766 256.137,-38.5136 260.529,-36.1238 260.529,-36.1238 260.529,-36.1238 256.137,-38.5136 258.378,-32.171 251.745,-40.9033 251.745,-40.9033"/>
</g>
<!-- Product&#45;&gt;ProductCategory -->
<g id="edge18" class="edge"><title>Product&#45;&gt;ProductCategory</title>
<path fill="none" stroke="#df21bf" d="M135.818,-68.9113C129.487,-61.3557 122.469,-52.9789 116.018,-45.2798"/>
<ellipse fill="none" stroke="#df21bf" cx="138.423" cy="-72.0206" rx="4.00002" ry="4.00002"/>
<polygon fill="#df21bf" stroke="#df21bf" points="115.723,-44.9277 112.75,-34.3725 112.512,-41.0951 109.301,-37.2625 109.301,-37.2625 109.301,-37.2625 112.512,-41.0951 105.852,-40.1525 115.723,-44.9277 115.723,-44.9277"/>
</g>
<!-- Client -->
<g id="node10" class="node"><title>Client</title>
<ellipse fill="none" stroke="black" cx="407" cy="-269" rx="39.8075" ry="18.3848"/>
<text text-anchor="middle" x="407" y="-265.4" font-family="Times Roman,serif" font-size="14.00">Client</text>
</g>
<!-- Client&#45;&gt;Order -->
<g id="edge22" class="edge"><title>Client&#45;&gt;Order</title>
<path fill="none" stroke="#36c99d" d="M394.939,-243.371C387.926,-228.468 379.088,-209.687 371.931,-194.479"/>
<ellipse fill="none" stroke="#36c99d" cx="396.715" cy="-247.145" rx="4.00002" ry="4.00002"/>
<polygon fill="#36c99d" stroke="#36c99d" points="371.765,-194.126 371.579,-183.162 369.636,-189.602 367.507,-185.078 367.507,-185.078 367.507,-185.078 369.636,-189.602 363.435,-186.994 371.765,-194.126 371.765,-194.126"/>
</g>
<!-- Employee&#45;&gt;OrderEmployee -->
<g id="edge24" class="edge"><title>Employee&#45;&gt;OrderEmployee</title>
<path fill="none" stroke="#c671f1" d="M481.557,-66.309C481.237,-60.3769 480.895,-54.0606 480.57,-48.0396"/>
<ellipse fill="none" stroke="#c671f1" cx="481.775" cy="-70.3325" rx="4" ry="4"/>
<polygon fill="#c671f1" stroke="#c671f1" points="480.549,-47.6528 484.502,-37.4244 480.279,-42.6601 480.009,-37.6674 480.009,-37.6674 480.009,-37.6674 480.279,-42.6601 475.516,-37.9103 480.549,-47.6528 480.549,-47.6528"/>
</g>
</g>
</svg>
