<?xml version="1.0" encoding="UTF-8" standalone="no"?>
<!DOCTYPE svg PUBLIC "-//W3C//DTD SVG 1.1//EN"
 "http://www.w3.org/Graphics/SVG/1.1/DTD/svg11.dtd">
<!-- Generated by graphviz version 2.26.3 (20100126.1600)
 -->
<!-- Title: models_diagram Pages: 1 -->
<svg width="662pt" height="324pt"
 viewBox="0.00 0.00 662.00 324.00" xmlns="http://www.w3.org/2000/svg" xmlns:xlink="http://www.w3.org/1999/xlink">
<g id="graph1" class="graph" transform="scale(1 1) rotate(0) translate(4 320)">
<title>models_diagram</title>
<polygon fill="none" stroke="none" points="-4,5 -4,-320 659,-320 659,5 -4,5"/>
<!-- _diagram_info -->
<g id="node1" class="node"><title>_diagram_info</title>
<text text-anchor="start" x="8" y="-299.8" font-family="Times Roman,serif" font-size="13.00">Models diagram</text>
<text text-anchor="start" x="8" y="-282.8" font-family="Times Roman,serif" font-size="13.00">Date: Dec 20 2016 &#45; 21:36</text>
<text text-anchor="start" x="8" y="-265.8" font-family="Times Roman,serif" font-size="13.00">Migration version: 20161221003458</text>
<text text-anchor="start" x="8" y="-248.8" font-family="Times Roman,serif" font-size="13.00">Generated by RailRoady 1.5.2</text>
<text text-anchor="start" x="8" y="-231.8" font-family="Times Roman,serif" font-size="13.00">http://railroady.prestonlee.com</text>
</g>
<!-- Category -->
<g id="node2" class="node"><title>Category</title>
<ellipse fill="none" stroke="black" cx="193" cy="-167" rx="56.0679" ry="18.3848"/>
<text text-anchor="middle" x="193" y="-163.4" font-family="Times Roman,serif" font-size="14.00">Category</text>
</g>
<!-- Product -->
<g id="node8" class="node"><title>Product</title>
<ellipse fill="none" stroke="black" cx="231" cy="-93" rx="48.9975" ry="18.3848"/>
<text text-anchor="middle" x="231" y="-89.4" font-family="Times Roman,serif" font-size="14.00">Product</text>
</g>
<!-- Category&#45;&gt;Product -->
<g id="edge4" class="edge"><title>Category&#45;&gt;Product</title>
<path fill="none" stroke="#34f06b" d="M207.035,-139.668C210.293,-133.325 213.759,-126.574 217.014,-120.235"/>
<polygon fill="#34f06b" stroke="#34f06b" points="206.961,-139.812 198.39,-146.652 204.677,-144.26 202.393,-148.708 202.393,-148.708 202.393,-148.708 204.677,-144.26 206.396,-150.764 206.961,-139.812 206.961,-139.812"/>
<polygon fill="#34f06b" stroke="#34f06b" points="217.015,-120.234 225.586,-113.394 219.299,-115.786 221.583,-111.338 221.583,-111.338 221.583,-111.338 219.299,-115.786 217.58,-109.283 217.015,-120.234 217.015,-120.234"/>
</g>
<!-- ProductCategory -->
<g id="node9" class="node"><title>ProductCategory</title>
<ellipse fill="none" stroke="black" cx="192" cy="-19" rx="94.0452" ry="18.3848"/>
<text text-anchor="middle" x="192" y="-15.4" font-family="Times Roman,serif" font-size="14.00">ProductCategory</text>
</g>
<!-- Category&#45;&gt;ProductCategory -->
<g id="edge2" class="edge"><title>Category&#45;&gt;ProductCategory</title>
<path fill="none" stroke="#e90b27" d="M181.465,-141.063C178.026,-132.049 174.718,-121.751 173,-112 170.07,-95.3673 170.204,-90.6559 173,-74 174.515,-64.9773 177.335,-55.4553 180.349,-46.9165"/>
<ellipse fill="none" stroke="#e90b27" cx="182.998" cy="-144.895" rx="4.00001" ry="4.00001"/>
<polygon fill="#e90b27" stroke="#e90b27" points="180.394,-46.7954 188.121,-39.0141 182.151,-42.1142 183.908,-37.433 183.908,-37.433 183.908,-37.433 182.151,-42.1142 179.694,-35.8519 180.394,-46.7954 180.394,-46.7954"/>
</g>
<!-- Order -->
<g id="node3" class="node"><title>Order</title>
<ellipse fill="none" stroke="black" cx="352" cy="-167" rx="39.0967" ry="18.3848"/>
<text text-anchor="middle" x="352" y="-163.4" font-family="Times Roman,serif" font-size="14.00">Order</text>
</g>
<!-- Payment -->
<g id="node4" class="node"><title>Payment</title>
<ellipse fill="none" stroke="black" cx="352" cy="-93" rx="53.9477" ry="18.3848"/>
<text text-anchor="middle" x="352" y="-89.4" font-family="Times Roman,serif" font-size="14.00">Payment</text>
</g>
<!-- Order&#45;&gt;Payment -->
<g id="edge10" class="edge"><title>Order&#45;&gt;Payment</title>
<path fill="none" stroke="#481166" d="M352,-140.309C352,-133.635 352,-126.476 352,-119.797"/>
<ellipse fill="none" stroke="#481166" cx="352" cy="-144.327" rx="4" ry="4"/>
<ellipse fill="#481166" stroke="#481166" cx="352" cy="-115.667" rx="4" ry="4"/>
</g>
<!-- OrderProduct -->
<g id="node7" class="node"><title>OrderProduct</title>
<ellipse fill="none" stroke="black" cx="408" cy="-19" rx="77.7817" ry="18.3848"/>
<text text-anchor="middle" x="408" y="-15.4" font-family="Times Roman,serif" font-size="14.00">OrderProduct</text>
</g>
<!-- Order&#45;&gt;OrderProduct -->
<g id="edge6" class="edge"><title>Order&#45;&gt;OrderProduct</title>
<path fill="none" stroke="#233621" d="M383.757,-147.847C395.903,-138.67 408.411,-126.499 415,-112 424.157,-91.8512 421.539,-66.7056 417.111,-47.6434"/>
<ellipse fill="none" stroke="#233621" cx="380.337" cy="-150.301" rx="4.00002" ry="4.00002"/>
<polygon fill="#233621" stroke="#233621" points="417.054,-47.425 418.882,-36.6125 415.791,-42.5872 414.528,-37.7494 414.528,-37.7494 414.528,-37.7494 415.791,-42.5872 410.174,-38.8863 417.054,-47.425 417.054,-47.425"/>
</g>
<!-- Order&#45;&gt;Product -->
<g id="edge8" class="edge"><title>Order&#45;&gt;Product</title>
<path fill="none" stroke="#7e3260" d="M319.481,-147.112C302.94,-136.996 282.819,-124.691 265.947,-114.372"/>
<polygon fill="#7e3260" stroke="#7e3260" points="319.563,-147.163 325.746,-156.219 323.829,-149.771 328.094,-152.38 328.094,-152.38 328.094,-152.38 323.829,-149.771 330.442,-148.541 319.563,-147.163 319.563,-147.163"/>
<polygon fill="#7e3260" stroke="#7e3260" points="265.482,-114.088 259.298,-105.032 261.216,-111.479 256.951,-108.871 256.951,-108.871 256.951,-108.871 261.216,-111.479 254.603,-112.71 265.482,-114.088 265.482,-114.088"/>
</g>
<!-- Zone -->
<g id="node5" class="node"><title>Zone</title>
<ellipse fill="none" stroke="black" cx="305" cy="-269" rx="36.7696" ry="18.3848"/>
<text text-anchor="middle" x="305" y="-265.4" font-family="Times Roman,serif" font-size="14.00">Zone</text>
</g>
<!-- Zone&#45;&gt;Order -->
<g id="edge12" class="edge"><title>Zone&#45;&gt;Order</title>
<path fill="none" stroke="#033018" d="M316.81,-243.371C323.677,-228.468 332.331,-209.687 339.338,-194.479"/>
<ellipse fill="none" stroke="#033018" cx="315.077" cy="-247.132" rx="4.00002" ry="4.00002"/>
<polygon fill="#033018" stroke="#033018" points="339.485,-194.16 347.757,-186.961 341.578,-189.619 343.67,-185.078 343.67,-185.078 343.67,-185.078 341.578,-189.619 339.583,-183.194 339.485,-194.16 339.485,-194.16"/>
</g>
<!-- ApplicationRecord -->
<g id="node6" class="node"><title>ApplicationRecord</title>
<ellipse fill="none" stroke="black" cx="556" cy="-269" rx="97.7889" ry="18.3848"/>
<text text-anchor="middle" x="556" y="-265.4" font-family="Times Roman,serif" font-size="14.00">ApplicationRecord</text>
</g>
<!-- Product&#45;&gt;OrderProduct -->
<g id="edge16" class="edge"><title>Product&#45;&gt;OrderProduct</title>
<path fill="none" stroke="#ba48be" d="M271.506,-76.0651C297.823,-65.0629 332.255,-50.6672 359.953,-39.0875"/>
<ellipse fill="none" stroke="#ba48be" cx="267.568" cy="-77.7117" rx="4.00001" ry="4.00001"/>
<polygon fill="#ba48be" stroke="#ba48be" points="360.218,-38.9766 371.18,-39.271 364.831,-37.0479 369.444,-35.1193 369.444,-35.1193 369.444,-35.1193 364.831,-37.0479 367.709,-30.9675 360.218,-38.9766 360.218,-38.9766"/>
</g>
<!-- Product&#45;&gt;ProductCategory -->
<g id="edge14" class="edge"><title>Product&#45;&gt;ProductCategory</title>
<path fill="none" stroke="#65051e" d="M217.552,-67.4839C213.994,-60.7322 210.137,-53.4141 206.524,-46.5593"/>
<ellipse fill="none" stroke="#65051e" cx="219.495" cy="-71.1692" rx="4.00002" ry="4.00002"/>
<polygon fill="#65051e" stroke="#65051e" points="206.463,-46.4423 205.781,-35.4976 204.132,-42.019 201.8,-37.5957 201.8,-37.5957 201.8,-37.5957 204.132,-42.019 197.819,-39.6938 206.463,-46.4423 206.463,-46.4423"/>
</g>
<!-- Client -->
<g id="node10" class="node"><title>Client</title>
<ellipse fill="none" stroke="black" cx="400" cy="-269" rx="39.8075" ry="18.3848"/>
<text text-anchor="middle" x="400" y="-265.4" font-family="Times Roman,serif" font-size="14.00">Client</text>
</g>
<!-- Client&#45;&gt;Order -->
<g id="edge18" class="edge"><title>Client&#45;&gt;Order</title>
<path fill="none" stroke="#773071" d="M387.939,-243.371C380.926,-228.468 372.088,-209.687 364.931,-194.479"/>
<ellipse fill="none" stroke="#773071" cx="389.715" cy="-247.145" rx="4.00002" ry="4.00002"/>
<polygon fill="#773071" stroke="#773071" points="364.765,-194.126 364.579,-183.162 362.636,-189.602 360.507,-185.078 360.507,-185.078 360.507,-185.078 362.636,-189.602 356.435,-186.994 364.765,-194.126 364.765,-194.126"/>
</g>
</g>
</svg>
