<?xml version="1.0" encoding="UTF-8" standalone="no"?>
<!DOCTYPE svg PUBLIC "-//W3C//DTD SVG 1.1//EN"
 "http://www.w3.org/Graphics/SVG/1.1/DTD/svg11.dtd">
<!-- Generated by graphviz version 2.26.3 (20100126.1600)
 -->
<!-- Title: models_diagram Pages: 1 -->
<svg width="1292pt" height="854pt"
 viewBox="0.00 0.00 1292.00 854.00" xmlns="http://www.w3.org/2000/svg" xmlns:xlink="http://www.w3.org/1999/xlink">
<g id="graph1" class="graph" transform="scale(1 1) rotate(0) translate(4 850)">
<title>models_diagram</title>
<polygon fill="none" stroke="none" points="-4,5 -4,-850 1289,-850 1289,5 -4,5"/>
<!-- _diagram_info -->
<g id="node1" class="node"><title>_diagram_info</title>
<text text-anchor="start" x="176" y="-777.8" font-family="Times Roman,serif" font-size="13.00">Models diagram</text>
<text text-anchor="start" x="176" y="-760.8" font-family="Times Roman,serif" font-size="13.00">Date: Dec 21 2016 &#45; 00:16</text>
<text text-anchor="start" x="176" y="-743.8" font-family="Times Roman,serif" font-size="13.00">Migration version: 20161221031330</text>
<text text-anchor="start" x="176" y="-726.8" font-family="Times Roman,serif" font-size="13.00">Generated by RailRoady 1.5.2</text>
<text text-anchor="start" x="176" y="-709.8" font-family="Times Roman,serif" font-size="13.00">http://railroady.prestonlee.com</text>
</g>
<!-- Category -->
<g id="node2" class="node"><title>Category</title>
<polyline fill="none" stroke="black" points="11.5,-478 296.5,-478 "/>
<path fill="none" stroke="black" d="M296.5,-478C302.5,-478 308.5,-484 308.5,-490"/>
<polyline fill="none" stroke="black" points="308.5,-490 308.5,-590 "/>
<path fill="none" stroke="black" d="M308.5,-590C308.5,-596 302.5,-602 296.5,-602"/>
<polyline fill="none" stroke="black" points="296.5,-602 11.5,-602 "/>
<path fill="none" stroke="black" d="M11.5,-602C5.5,-602 -0.5,-596 -0.5,-590"/>
<polyline fill="none" stroke="black" points="-0.5,-590 -0.5,-490 "/>
<path fill="none" stroke="black" d="M-0.5,-490C-0.5,-484 5.5,-478 11.5,-478"/>
<text text-anchor="middle" x="154" y="-585.4" font-family="Times Roman,serif" font-size="14.00">Category</text>
<polyline fill="none" stroke="black" points="-0.5,-576 308.5,-576 "/>
<text text-anchor="start" x="7.5" y="-559.4" font-family="Times Roman,serif" font-size="14.00">id :integer</text>
<text text-anchor="start" x="7.5" y="-541.4" font-family="Times Roman,serif" font-size="14.00">name :character varying</text>
<text text-anchor="start" x="7.5" y="-523.4" font-family="Times Roman,serif" font-size="14.00">description :character varying</text>
<text text-anchor="start" x="7.5" y="-505.4" font-family="Times Roman,serif" font-size="14.00">created_at :timestamp without time zone</text>
<text text-anchor="start" x="7.5" y="-487.4" font-family="Times Roman,serif" font-size="14.00">updated_at :timestamp without time zone</text>
</g>
<!-- Product -->
<g id="node8" class="node"><title>Product</title>
<polyline fill="none" stroke="black" points="102.5,-208 387.5,-208 "/>
<path fill="none" stroke="black" d="M387.5,-208C393.5,-208 399.5,-214 399.5,-220"/>
<polyline fill="none" stroke="black" points="399.5,-220 399.5,-374 "/>
<path fill="none" stroke="black" d="M399.5,-374C399.5,-380 393.5,-386 387.5,-386"/>
<polyline fill="none" stroke="black" points="387.5,-386 102.5,-386 "/>
<path fill="none" stroke="black" d="M102.5,-386C96.5,-386 90.5,-380 90.5,-374"/>
<polyline fill="none" stroke="black" points="90.5,-374 90.5,-220 "/>
<path fill="none" stroke="black" d="M90.5,-220C90.5,-214 96.5,-208 102.5,-208"/>
<text text-anchor="middle" x="245" y="-369.4" font-family="Times Roman,serif" font-size="14.00">Product</text>
<polyline fill="none" stroke="black" points="90.5,-360 399.5,-360 "/>
<text text-anchor="start" x="98.5" y="-343.4" font-family="Times Roman,serif" font-size="14.00">id :integer</text>
<text text-anchor="start" x="98.5" y="-325.4" font-family="Times Roman,serif" font-size="14.00">name :character varying</text>
<text text-anchor="start" x="98.5" y="-307.4" font-family="Times Roman,serif" font-size="14.00">description :character varying</text>
<text text-anchor="start" x="98.5" y="-289.4" font-family="Times Roman,serif" font-size="14.00">time :integer</text>
<text text-anchor="start" x="98.5" y="-271.4" font-family="Times Roman,serif" font-size="14.00">price :integer</text>
<text text-anchor="start" x="98.5" y="-253.4" font-family="Times Roman,serif" font-size="14.00">picture :character varying</text>
<text text-anchor="start" x="98.5" y="-235.4" font-family="Times Roman,serif" font-size="14.00">created_at :timestamp without time zone</text>
<text text-anchor="start" x="98.5" y="-217.4" font-family="Times Roman,serif" font-size="14.00">updated_at :timestamp without time zone</text>
</g>
<!-- Category&#45;&gt;Product -->
<g id="edge4" class="edge"><title>Category&#45;&gt;Product</title>
<path fill="none" stroke="#295f8f" d="M180.935,-468.076C189.43,-445.39 198.968,-419.921 208.036,-395.706"/>
<polygon fill="#295f8f" stroke="#295f8f" points="180.824,-468.372 173.102,-476.159 179.07,-473.055 177.317,-477.737 177.317,-477.737 177.317,-477.737 179.07,-473.055 181.531,-479.315 180.824,-468.372 180.824,-468.372"/>
<polygon fill="#295f8f" stroke="#295f8f" points="208.112,-395.503 215.833,-387.716 209.866,-390.82 211.619,-386.138 211.619,-386.138 211.619,-386.138 209.866,-390.82 207.405,-384.56 208.112,-395.503 208.112,-395.503"/>
</g>
<!-- ProductCategory -->
<g id="node9" class="node"><title>ProductCategory</title>
<polyline fill="none" stroke="black" points="20.5,-1 305.5,-1 "/>
<path fill="none" stroke="black" d="M305.5,-1C311.5,-1 317.5,-7 317.5,-13"/>
<polyline fill="none" stroke="black" points="317.5,-13 317.5,-113 "/>
<path fill="none" stroke="black" d="M317.5,-113C317.5,-119 311.5,-125 305.5,-125"/>
<polyline fill="none" stroke="black" points="305.5,-125 20.5,-125 "/>
<path fill="none" stroke="black" d="M20.5,-125C14.5,-125 8.5,-119 8.5,-113"/>
<polyline fill="none" stroke="black" points="8.5,-113 8.5,-13 "/>
<path fill="none" stroke="black" d="M8.5,-13C8.5,-7 14.5,-1 20.5,-1"/>
<text text-anchor="middle" x="163" y="-108.4" font-family="Times Roman,serif" font-size="14.00">ProductCategory</text>
<polyline fill="none" stroke="black" points="8.5,-99 317.5,-99 "/>
<text text-anchor="start" x="16.5" y="-82.4" font-family="Times Roman,serif" font-size="14.00">id :integer</text>
<text text-anchor="start" x="16.5" y="-64.4" font-family="Times Roman,serif" font-size="14.00">product_id :integer</text>
<text text-anchor="start" x="16.5" y="-46.4" font-family="Times Roman,serif" font-size="14.00">category_id :integer</text>
<text text-anchor="start" x="16.5" y="-28.4" font-family="Times Roman,serif" font-size="14.00">created_at :timestamp without time zone</text>
<text text-anchor="start" x="16.5" y="-10.4" font-family="Times Roman,serif" font-size="14.00">updated_at :timestamp without time zone</text>
</g>
<!-- Category&#45;&gt;ProductCategory -->
<g id="edge2" class="edge"><title>Category&#45;&gt;ProductCategory</title>
<path fill="none" stroke="#caad84" d="M99.4037,-470.639C92.246,-458.363 86.0122,-445.252 82,-432 47.2259,-317.149 41.6576,-275.015 82,-162 85.5078,-152.173 90.4564,-142.619 96.1988,-133.568"/>
<ellipse fill="none" stroke="#caad84" cx="101.644" cy="-474.343" rx="4.00002" ry="4.00002"/>
<polygon fill="#caad84" stroke="#caad84" points="96.3455,-133.35 105.661,-127.563 99.136,-129.201 101.926,-125.052 101.926,-125.052 101.926,-125.052 99.136,-129.201 98.1925,-122.54 96.3455,-133.35 96.3455,-133.35"/>
</g>
<!-- Order -->
<g id="node3" class="node"><title>Order</title>
<polyline fill="none" stroke="black" points="610.5,-469 895.5,-469 "/>
<path fill="none" stroke="black" d="M895.5,-469C901.5,-469 907.5,-475 907.5,-481"/>
<polyline fill="none" stroke="black" points="907.5,-481 907.5,-599 "/>
<path fill="none" stroke="black" d="M907.5,-599C907.5,-605 901.5,-611 895.5,-611"/>
<polyline fill="none" stroke="black" points="895.5,-611 610.5,-611 "/>
<path fill="none" stroke="black" d="M610.5,-611C604.5,-611 598.5,-605 598.5,-599"/>
<polyline fill="none" stroke="black" points="598.5,-599 598.5,-481 "/>
<path fill="none" stroke="black" d="M598.5,-481C598.5,-475 604.5,-469 610.5,-469"/>
<text text-anchor="middle" x="753" y="-594.4" font-family="Times Roman,serif" font-size="14.00">Order</text>
<polyline fill="none" stroke="black" points="598.5,-585 907.5,-585 "/>
<text text-anchor="start" x="606.5" y="-568.4" font-family="Times Roman,serif" font-size="14.00">id :integer</text>
<text text-anchor="start" x="606.5" y="-550.4" font-family="Times Roman,serif" font-size="14.00">total :integer</text>
<text text-anchor="start" x="606.5" y="-532.4" font-family="Times Roman,serif" font-size="14.00">client_id :integer</text>
<text text-anchor="start" x="606.5" y="-514.4" font-family="Times Roman,serif" font-size="14.00">zone_id :integer</text>
<text text-anchor="start" x="606.5" y="-496.4" font-family="Times Roman,serif" font-size="14.00">created_at :timestamp without time zone</text>
<text text-anchor="start" x="606.5" y="-478.4" font-family="Times Roman,serif" font-size="14.00">updated_at :timestamp without time zone</text>
</g>
<!-- Payment -->
<g id="node4" class="node"><title>Payment</title>
<polyline fill="none" stroke="black" points="428.5,-217 713.5,-217 "/>
<path fill="none" stroke="black" d="M713.5,-217C719.5,-217 725.5,-223 725.5,-229"/>
<polyline fill="none" stroke="black" points="725.5,-229 725.5,-365 "/>
<path fill="none" stroke="black" d="M725.5,-365C725.5,-371 719.5,-377 713.5,-377"/>
<polyline fill="none" stroke="black" points="713.5,-377 428.5,-377 "/>
<path fill="none" stroke="black" d="M428.5,-377C422.5,-377 416.5,-371 416.5,-365"/>
<polyline fill="none" stroke="black" points="416.5,-365 416.5,-229 "/>
<path fill="none" stroke="black" d="M416.5,-229C416.5,-223 422.5,-217 428.5,-217"/>
<text text-anchor="middle" x="571" y="-360.4" font-family="Times Roman,serif" font-size="14.00">Payment</text>
<polyline fill="none" stroke="black" points="416.5,-351 725.5,-351 "/>
<text text-anchor="start" x="424.5" y="-334.4" font-family="Times Roman,serif" font-size="14.00">id :integer</text>
<text text-anchor="start" x="424.5" y="-316.4" font-family="Times Roman,serif" font-size="14.00">amount :integer</text>
<text text-anchor="start" x="424.5" y="-298.4" font-family="Times Roman,serif" font-size="14.00">type :character varying</text>
<text text-anchor="start" x="424.5" y="-280.4" font-family="Times Roman,serif" font-size="14.00">status :character varying</text>
<text text-anchor="start" x="424.5" y="-262.4" font-family="Times Roman,serif" font-size="14.00">order_id :integer</text>
<text text-anchor="start" x="424.5" y="-244.4" font-family="Times Roman,serif" font-size="14.00">created_at :timestamp without time zone</text>
<text text-anchor="start" x="424.5" y="-226.4" font-family="Times Roman,serif" font-size="14.00">updated_at :timestamp without time zone</text>
</g>
<!-- Order&#45;&gt;Payment -->
<g id="edge14" class="edge"><title>Order&#45;&gt;Payment</title>
<path fill="none" stroke="#932c08" d="M694.782,-462.27C676.029,-437.232 655.132,-409.331 635.928,-383.689"/>
<ellipse fill="none" stroke="#932c08" cx="697.226" cy="-465.532" rx="4.00002" ry="4.00002"/>
<ellipse fill="#932c08" stroke="#932c08" cx="633.482" cy="-380.423" rx="4.00002" ry="4.00002"/>
</g>
<!-- OrderProduct -->
<g id="node7" class="node"><title>OrderProduct</title>
<polyline fill="none" stroke="black" points="384.5,-1 669.5,-1 "/>
<path fill="none" stroke="black" d="M669.5,-1C675.5,-1 681.5,-7 681.5,-13"/>
<polyline fill="none" stroke="black" points="681.5,-13 681.5,-113 "/>
<path fill="none" stroke="black" d="M681.5,-113C681.5,-119 675.5,-125 669.5,-125"/>
<polyline fill="none" stroke="black" points="669.5,-125 384.5,-125 "/>
<path fill="none" stroke="black" d="M384.5,-125C378.5,-125 372.5,-119 372.5,-113"/>
<polyline fill="none" stroke="black" points="372.5,-113 372.5,-13 "/>
<path fill="none" stroke="black" d="M372.5,-13C372.5,-7 378.5,-1 384.5,-1"/>
<text text-anchor="middle" x="527" y="-108.4" font-family="Times Roman,serif" font-size="14.00">OrderProduct</text>
<polyline fill="none" stroke="black" points="372.5,-99 681.5,-99 "/>
<text text-anchor="start" x="380.5" y="-82.4" font-family="Times Roman,serif" font-size="14.00">id :integer</text>
<text text-anchor="start" x="380.5" y="-64.4" font-family="Times Roman,serif" font-size="14.00">order_id :integer</text>
<text text-anchor="start" x="380.5" y="-46.4" font-family="Times Roman,serif" font-size="14.00">product_id :integer</text>
<text text-anchor="start" x="380.5" y="-28.4" font-family="Times Roman,serif" font-size="14.00">created_at :timestamp without time zone</text>
<text text-anchor="start" x="380.5" y="-10.4" font-family="Times Roman,serif" font-size="14.00">updated_at :timestamp without time zone</text>
</g>
<!-- Order&#45;&gt;OrderProduct -->
<g id="edge6" class="edge"><title>Order&#45;&gt;OrderProduct</title>
<path fill="none" stroke="#5c8fb9" d="M758.282,-460.6C763.118,-364.353 765.406,-209.165 734,-162 722.568,-144.832 707.293,-130.559 690.196,-118.711"/>
<ellipse fill="none" stroke="#5c8fb9" cx="758.061" cy="-464.867" rx="4" ry="4"/>
<polygon fill="#5c8fb9" stroke="#5c8fb9" points="690.015,-118.592 684.143,-109.331 685.841,-115.84 681.666,-113.088 681.666,-113.088 681.666,-113.088 685.841,-115.84 679.189,-116.846 690.015,-118.592 690.015,-118.592"/>
</g>
<!-- Order&#45;&gt;Product -->
<g id="edge8" class="edge"><title>Order&#45;&gt;Product</title>
<path fill="none" stroke="#129c97" d="M588.616,-502.62C529.618,-485.611 463.901,-462.361 408,-432 387.517,-420.875 367.176,-406.974 348.164,-392.355"/>
<polygon fill="#129c97" stroke="#129c97" points="588.785,-502.668 597.173,-509.732 593.594,-504.036 598.404,-505.403 598.404,-505.403 598.404,-505.403 593.594,-504.036 599.634,-501.075 588.785,-502.668 588.785,-502.668"/>
<polygon fill="#129c97" stroke="#129c97" points="347.98,-392.211 342.873,-382.507 344.041,-389.132 340.102,-386.053 340.102,-386.053 340.102,-386.053 344.041,-389.132 337.33,-389.598 347.98,-392.211 347.98,-392.211"/>
</g>
<!-- OrderEmployee -->
<g id="node11" class="node"><title>OrderEmployee</title>
<polyline fill="none" stroke="black" points="729.5,-1 1014.5,-1 "/>
<path fill="none" stroke="black" d="M1014.5,-1C1020.5,-1 1026.5,-7 1026.5,-13"/>
<polyline fill="none" stroke="black" points="1026.5,-13 1026.5,-113 "/>
<path fill="none" stroke="black" d="M1026.5,-113C1026.5,-119 1020.5,-125 1014.5,-125"/>
<polyline fill="none" stroke="black" points="1014.5,-125 729.5,-125 "/>
<path fill="none" stroke="black" d="M729.5,-125C723.5,-125 717.5,-119 717.5,-113"/>
<polyline fill="none" stroke="black" points="717.5,-113 717.5,-13 "/>
<path fill="none" stroke="black" d="M717.5,-13C717.5,-7 723.5,-1 729.5,-1"/>
<text text-anchor="middle" x="872" y="-108.4" font-family="Times Roman,serif" font-size="14.00">OrderEmployee</text>
<polyline fill="none" stroke="black" points="717.5,-99 1026.5,-99 "/>
<text text-anchor="start" x="725.5" y="-82.4" font-family="Times Roman,serif" font-size="14.00">id :integer</text>
<text text-anchor="start" x="725.5" y="-64.4" font-family="Times Roman,serif" font-size="14.00">order_id :integer</text>
<text text-anchor="start" x="725.5" y="-46.4" font-family="Times Roman,serif" font-size="14.00">employee_id :integer</text>
<text text-anchor="start" x="725.5" y="-28.4" font-family="Times Roman,serif" font-size="14.00">created_at :timestamp without time zone</text>
<text text-anchor="start" x="725.5" y="-10.4" font-family="Times Roman,serif" font-size="14.00">updated_at :timestamp without time zone</text>
</g>
<!-- Order&#45;&gt;OrderEmployee -->
<g id="edge10" class="edge"><title>Order&#45;&gt;OrderEmployee</title>
<path fill="none" stroke="#f64a4c" d="M763.198,-460.749C776.662,-358.215 799.848,-189.42 810,-162 813.459,-152.657 817.874,-143.255 822.749,-134.159"/>
<ellipse fill="none" stroke="#f64a4c" cx="762.645" cy="-464.964" rx="4.00001" ry="4.00001"/>
<polygon fill="#f64a4c" stroke="#f64a4c" points="822.888,-133.912 831.69,-127.373 825.324,-129.546 827.761,-125.18 827.761,-125.18 827.761,-125.18 825.324,-129.546 823.832,-122.987 822.888,-133.912 822.888,-133.912"/>
</g>
<!-- Employee -->
<g id="node12" class="node"><title>Employee</title>
<polyline fill="none" stroke="black" points="831,-163 1205,-163 "/>
<path fill="none" stroke="black" d="M1205,-163C1211,-163 1217,-169 1217,-175"/>
<polyline fill="none" stroke="black" points="1217,-175 1217,-419 "/>
<path fill="none" stroke="black" d="M1217,-419C1217,-425 1211,-431 1205,-431"/>
<polyline fill="none" stroke="black" points="1205,-431 831,-431 "/>
<path fill="none" stroke="black" d="M831,-431C825,-431 819,-425 819,-419"/>
<polyline fill="none" stroke="black" points="819,-419 819,-175 "/>
<path fill="none" stroke="black" d="M819,-175C819,-169 825,-163 831,-163"/>
<text text-anchor="middle" x="1018" y="-414.4" font-family="Times Roman,serif" font-size="14.00">Employee</text>
<polyline fill="none" stroke="black" points="819,-405 1217,-405 "/>
<text text-anchor="start" x="827" y="-388.4" font-family="Times Roman,serif" font-size="14.00">id :integer</text>
<text text-anchor="start" x="827" y="-370.4" font-family="Times Roman,serif" font-size="14.00">email :character varying</text>
<text text-anchor="start" x="827" y="-352.4" font-family="Times Roman,serif" font-size="14.00">encrypted_password :character varying</text>
<text text-anchor="start" x="827" y="-334.4" font-family="Times Roman,serif" font-size="14.00">reset_password_token :character varying</text>
<text text-anchor="start" x="827" y="-316.4" font-family="Times Roman,serif" font-size="14.00">reset_password_sent_at :timestamp without time zone</text>
<text text-anchor="start" x="827" y="-298.4" font-family="Times Roman,serif" font-size="14.00">remember_created_at :timestamp without time zone</text>
<text text-anchor="start" x="827" y="-280.4" font-family="Times Roman,serif" font-size="14.00">sign_in_count :integer</text>
<text text-anchor="start" x="827" y="-262.4" font-family="Times Roman,serif" font-size="14.00">current_sign_in_at :timestamp without time zone</text>
<text text-anchor="start" x="827" y="-244.4" font-family="Times Roman,serif" font-size="14.00">last_sign_in_at :timestamp without time zone</text>
<text text-anchor="start" x="827" y="-226.4" font-family="Times Roman,serif" font-size="14.00">current_sign_in_ip :inet</text>
<text text-anchor="start" x="827" y="-208.4" font-family="Times Roman,serif" font-size="14.00">last_sign_in_ip :inet</text>
<text text-anchor="start" x="827" y="-190.4" font-family="Times Roman,serif" font-size="14.00">created_at :timestamp without time zone</text>
<text text-anchor="start" x="827" y="-172.4" font-family="Times Roman,serif" font-size="14.00">updated_at :timestamp without time zone</text>
</g>
<!-- Order&#45;&gt;Employee -->
<g id="edge12" class="edge"><title>Order&#45;&gt;Employee</title>
<path fill="none" stroke="#146884" d="M838.106,-461.96C846.534,-454.231 855.258,-446.232 864.112,-438.113"/>
<polygon fill="#146884" stroke="#146884" points="838.089,-461.975 827.677,-465.417 834.403,-465.355 830.718,-468.734 830.718,-468.734 830.718,-468.734 834.403,-465.355 833.76,-472.051 838.089,-461.975 838.089,-461.975"/>
<polygon fill="#146884" stroke="#146884" points="864.206,-438.026 874.618,-434.584 867.891,-434.647 871.576,-431.268 871.576,-431.268 871.576,-431.268 867.891,-434.647 868.535,-427.951 864.206,-438.026 864.206,-438.026"/>
</g>
<!-- Zone -->
<g id="node5" class="node"><title>Zone</title>
<polyline fill="none" stroke="black" points="447.5,-667 732.5,-667 "/>
<path fill="none" stroke="black" d="M732.5,-667C738.5,-667 744.5,-673 744.5,-679"/>
<polyline fill="none" stroke="black" points="744.5,-679 744.5,-815 "/>
<path fill="none" stroke="black" d="M744.5,-815C744.5,-821 738.5,-827 732.5,-827"/>
<polyline fill="none" stroke="black" points="732.5,-827 447.5,-827 "/>
<path fill="none" stroke="black" d="M447.5,-827C441.5,-827 435.5,-821 435.5,-815"/>
<polyline fill="none" stroke="black" points="435.5,-815 435.5,-679 "/>
<path fill="none" stroke="black" d="M435.5,-679C435.5,-673 441.5,-667 447.5,-667"/>
<text text-anchor="middle" x="590" y="-810.4" font-family="Times Roman,serif" font-size="14.00">Zone</text>
<polyline fill="none" stroke="black" points="435.5,-801 744.5,-801 "/>
<text text-anchor="start" x="443.5" y="-784.4" font-family="Times Roman,serif" font-size="14.00">id :integer</text>
<text text-anchor="start" x="443.5" y="-766.4" font-family="Times Roman,serif" font-size="14.00">name :character varying</text>
<text text-anchor="start" x="443.5" y="-748.4" font-family="Times Roman,serif" font-size="14.00">price :integer</text>
<text text-anchor="start" x="443.5" y="-730.4" font-family="Times Roman,serif" font-size="14.00">description :character varying</text>
<text text-anchor="start" x="443.5" y="-712.4" font-family="Times Roman,serif" font-size="14.00">dots :character varying</text>
<text text-anchor="start" x="443.5" y="-694.4" font-family="Times Roman,serif" font-size="14.00">created_at :timestamp without time zone</text>
<text text-anchor="start" x="443.5" y="-676.4" font-family="Times Roman,serif" font-size="14.00">updated_at :timestamp without time zone</text>
</g>
<!-- Zone&#45;&gt;Order -->
<g id="edge16" class="edge"><title>Zone&#45;&gt;Order</title>
<path fill="none" stroke="#1524c0" d="M658.153,-660.45C668.986,-646.693 680.142,-632.525 690.828,-618.954"/>
<ellipse fill="none" stroke="#1524c0" cx="655.495" cy="-663.826" rx="4.00002" ry="4.00002"/>
<polygon fill="#1524c0" stroke="#1524c0" points="690.873,-618.897 700.595,-613.825 693.966,-614.969 697.06,-611.041 697.06,-611.041 697.06,-611.041 693.966,-614.969 693.524,-608.257 690.873,-618.897 690.873,-618.897"/>
</g>
<!-- ApplicationRecord -->
<g id="node6" class="node"><title>ApplicationRecord</title>
<ellipse fill="none" stroke="black" cx="1186" cy="-747" rx="97.7889" ry="18.3848"/>
<text text-anchor="middle" x="1186" y="-743.4" font-family="Times Roman,serif" font-size="14.00">ApplicationRecord</text>
</g>
<!-- Product&#45;&gt;OrderProduct -->
<g id="edge20" class="edge"><title>Product&#45;&gt;OrderProduct</title>
<path fill="none" stroke="#e3eb5b" d="M358.691,-202.66C387.369,-178.864 417.615,-153.766 444.434,-131.513"/>
<ellipse fill="none" stroke="#e3eb5b" cx="355.495" cy="-205.313" rx="4.00002" ry="4.00002"/>
<polygon fill="#e3eb5b" stroke="#e3eb5b" points="444.575,-131.395 455.144,-128.473 448.423,-128.202 452.271,-125.009 452.271,-125.009 452.271,-125.009 448.423,-128.202 449.397,-121.546 444.575,-131.395 444.575,-131.395"/>
</g>
<!-- Product&#45;&gt;ProductCategory -->
<g id="edge18" class="edge"><title>Product&#45;&gt;ProductCategory</title>
<path fill="none" stroke="#a18b68" d="M211.023,-200.041C203.348,-178.14 195.335,-155.273 188.103,-134.635"/>
<ellipse fill="none" stroke="#a18b68" cx="212.443" cy="-204.092" rx="4.00001" ry="4.00001"/>
<polygon fill="#a18b68" stroke="#a18b68" points="188.037,-134.447 188.977,-123.521 186.383,-129.728 184.73,-125.009 184.73,-125.009 184.73,-125.009 186.383,-129.728 180.483,-126.498 188.037,-134.447 188.037,-134.447"/>
</g>
<!-- Client -->
<g id="node10" class="node"><title>Client</title>
<polyline fill="none" stroke="black" points="773.5,-649 1058.5,-649 "/>
<path fill="none" stroke="black" d="M1058.5,-649C1064.5,-649 1070.5,-655 1070.5,-661"/>
<polyline fill="none" stroke="black" points="1070.5,-661 1070.5,-833 "/>
<path fill="none" stroke="black" d="M1070.5,-833C1070.5,-839 1064.5,-845 1058.5,-845"/>
<polyline fill="none" stroke="black" points="1058.5,-845 773.5,-845 "/>
<path fill="none" stroke="black" d="M773.5,-845C767.5,-845 761.5,-839 761.5,-833"/>
<polyline fill="none" stroke="black" points="761.5,-833 761.5,-661 "/>
<path fill="none" stroke="black" d="M761.5,-661C761.5,-655 767.5,-649 773.5,-649"/>
<text text-anchor="middle" x="916" y="-828.4" font-family="Times Roman,serif" font-size="14.00">Client</text>
<polyline fill="none" stroke="black" points="761.5,-819 1070.5,-819 "/>
<text text-anchor="start" x="769.5" y="-802.4" font-family="Times Roman,serif" font-size="14.00">id :integer</text>
<text text-anchor="start" x="769.5" y="-784.4" font-family="Times Roman,serif" font-size="14.00">name :character varying</text>
<text text-anchor="start" x="769.5" y="-766.4" font-family="Times Roman,serif" font-size="14.00">address :character varying</text>
<text text-anchor="start" x="769.5" y="-748.4" font-family="Times Roman,serif" font-size="14.00">email :character varying</text>
<text text-anchor="start" x="769.5" y="-730.4" font-family="Times Roman,serif" font-size="14.00">phone :character varying</text>
<text text-anchor="start" x="769.5" y="-712.4" font-family="Times Roman,serif" font-size="14.00">latitude :character varying</text>
<text text-anchor="start" x="769.5" y="-694.4" font-family="Times Roman,serif" font-size="14.00">longitude :character varying</text>
<text text-anchor="start" x="769.5" y="-676.4" font-family="Times Roman,serif" font-size="14.00">created_at :timestamp without time zone</text>
<text text-anchor="start" x="769.5" y="-658.4" font-family="Times Roman,serif" font-size="14.00">updated_at :timestamp without time zone</text>
</g>
<!-- Client&#45;&gt;Order -->
<g id="edge22" class="edge"><title>Client&#45;&gt;Order</title>
<path fill="none" stroke="#a70abd" d="M833.615,-642.376C827.503,-634.614 821.397,-626.86 815.435,-619.289"/>
<ellipse fill="none" stroke="#a70abd" cx="836.321" cy="-645.813" rx="4.00002" ry="4.00002"/>
<polygon fill="#a70abd" stroke="#a70abd" points="815.216,-619.011 812.565,-608.37 812.123,-615.082 809.029,-611.154 809.029,-611.154 809.029,-611.154 812.123,-615.082 805.494,-613.938 815.216,-619.011 815.216,-619.011"/>
</g>
<!-- Employee&#45;&gt;OrderEmployee -->
<g id="edge24" class="edge"><title>Employee&#45;&gt;OrderEmployee</title>
<path fill="none" stroke="#507cae" d="M929.964,-155.902C925.306,-148.436 920.733,-141.106 916.326,-134.042"/>
<ellipse fill="none" stroke="#507cae" cx="932.223" cy="-159.522" rx="4.00002" ry="4.00002"/>
<polygon fill="#507cae" stroke="#507cae" points="916.131,-133.731 914.656,-122.865 913.484,-129.489 910.838,-125.247 910.838,-125.247 910.838,-125.247 913.484,-129.489 907.02,-127.629 916.131,-133.731 916.131,-133.731"/>
</g>
</g>
</svg>
