<?xml version="1.0" encoding="UTF-8" standalone="no"?>
<!DOCTYPE svg PUBLIC "-//W3C//DTD SVG 1.1//EN"
 "http://www.w3.org/Graphics/SVG/1.1/DTD/svg11.dtd">
<!-- Generated by graphviz version 2.26.3 (20100126.1600)
 -->
<!-- Title: models_diagram Pages: 1 -->
<svg width="1124pt" height="764pt"
 viewBox="0.00 0.00 1124.00 764.00" xmlns="http://www.w3.org/2000/svg" xmlns:xlink="http://www.w3.org/1999/xlink">
<g id="graph1" class="graph" transform="scale(1 1) rotate(0) translate(4 760)">
<title>models_diagram</title>
<polygon fill="none" stroke="none" points="-4,5 -4,-760 1121,-760 1121,5 -4,5"/>
<!-- _diagram_info -->
<g id="node1" class="node"><title>_diagram_info</title>
<text text-anchor="start" x="8" y="-687.8" font-family="Times Roman,serif" font-size="13.00">Models diagram</text>
<text text-anchor="start" x="8" y="-670.8" font-family="Times Roman,serif" font-size="13.00">Date: Dec 20 2016 &#45; 21:36</text>
<text text-anchor="start" x="8" y="-653.8" font-family="Times Roman,serif" font-size="13.00">Migration version: 20161221003458</text>
<text text-anchor="start" x="8" y="-636.8" font-family="Times Roman,serif" font-size="13.00">Generated by RailRoady 1.5.2</text>
<text text-anchor="start" x="8" y="-619.8" font-family="Times Roman,serif" font-size="13.00">http://railroady.prestonlee.com</text>
</g>
<!-- Category -->
<g id="node2" class="node"><title>Category</title>
<polyline fill="none" stroke="black" points="25.5,-388 310.5,-388 "/>
<path fill="none" stroke="black" d="M310.5,-388C316.5,-388 322.5,-394 322.5,-400"/>
<polyline fill="none" stroke="black" points="322.5,-400 322.5,-500 "/>
<path fill="none" stroke="black" d="M322.5,-500C322.5,-506 316.5,-512 310.5,-512"/>
<polyline fill="none" stroke="black" points="310.5,-512 25.5,-512 "/>
<path fill="none" stroke="black" d="M25.5,-512C19.5,-512 13.5,-506 13.5,-500"/>
<polyline fill="none" stroke="black" points="13.5,-500 13.5,-400 "/>
<path fill="none" stroke="black" d="M13.5,-400C13.5,-394 19.5,-388 25.5,-388"/>
<text text-anchor="middle" x="168" y="-495.4" font-family="Times Roman,serif" font-size="14.00">Category</text>
<polyline fill="none" stroke="black" points="13.5,-486 322.5,-486 "/>
<text text-anchor="start" x="21.5" y="-469.4" font-family="Times Roman,serif" font-size="14.00">id :integer</text>
<text text-anchor="start" x="21.5" y="-451.4" font-family="Times Roman,serif" font-size="14.00">name :character varying</text>
<text text-anchor="start" x="21.5" y="-433.4" font-family="Times Roman,serif" font-size="14.00">description :character varying</text>
<text text-anchor="start" x="21.5" y="-415.4" font-family="Times Roman,serif" font-size="14.00">created_at :timestamp without time zone</text>
<text text-anchor="start" x="21.5" y="-397.4" font-family="Times Roman,serif" font-size="14.00">updated_at :timestamp without time zone</text>
</g>
<!-- Product -->
<g id="node8" class="node"><title>Product</title>
<polyline fill="none" stroke="black" points="116.5,-163 401.5,-163 "/>
<path fill="none" stroke="black" d="M401.5,-163C407.5,-163 413.5,-169 413.5,-175"/>
<polyline fill="none" stroke="black" points="413.5,-175 413.5,-329 "/>
<path fill="none" stroke="black" d="M413.5,-329C413.5,-335 407.5,-341 401.5,-341"/>
<polyline fill="none" stroke="black" points="401.5,-341 116.5,-341 "/>
<path fill="none" stroke="black" d="M116.5,-341C110.5,-341 104.5,-335 104.5,-329"/>
<polyline fill="none" stroke="black" points="104.5,-329 104.5,-175 "/>
<path fill="none" stroke="black" d="M104.5,-175C104.5,-169 110.5,-163 116.5,-163"/>
<text text-anchor="middle" x="259" y="-324.4" font-family="Times Roman,serif" font-size="14.00">Product</text>
<polyline fill="none" stroke="black" points="104.5,-315 413.5,-315 "/>
<text text-anchor="start" x="112.5" y="-298.4" font-family="Times Roman,serif" font-size="14.00">id :integer</text>
<text text-anchor="start" x="112.5" y="-280.4" font-family="Times Roman,serif" font-size="14.00">name :character varying</text>
<text text-anchor="start" x="112.5" y="-262.4" font-family="Times Roman,serif" font-size="14.00">description :character varying</text>
<text text-anchor="start" x="112.5" y="-244.4" font-family="Times Roman,serif" font-size="14.00">time :integer</text>
<text text-anchor="start" x="112.5" y="-226.4" font-family="Times Roman,serif" font-size="14.00">price :integer</text>
<text text-anchor="start" x="112.5" y="-208.4" font-family="Times Roman,serif" font-size="14.00">picture :character varying</text>
<text text-anchor="start" x="112.5" y="-190.4" font-family="Times Roman,serif" font-size="14.00">created_at :timestamp without time zone</text>
<text text-anchor="start" x="112.5" y="-172.4" font-family="Times Roman,serif" font-size="14.00">updated_at :timestamp without time zone</text>
</g>
<!-- Category&#45;&gt;Product -->
<g id="edge4" class="edge"><title>Category&#45;&gt;Product</title>
<path fill="none" stroke="#14915e" d="M200.772,-378.695C205.022,-369.446 209.434,-359.847 213.841,-350.257"/>
<polygon fill="#14915e" stroke="#14915e" points="200.719,-378.809 192.454,-386.016 198.631,-383.352 196.543,-387.895 196.543,-387.895 196.543,-387.895 198.631,-383.352 200.632,-389.774 200.719,-378.809 200.719,-378.809"/>
<polygon fill="#14915e" stroke="#14915e" points="213.884,-350.164 222.149,-342.957 215.972,-345.621 218.06,-341.078 218.06,-341.078 218.06,-341.078 215.972,-345.621 213.971,-339.198 213.884,-350.164 213.884,-350.164"/>
</g>
<!-- ProductCategory -->
<g id="node9" class="node"><title>ProductCategory</title>
<polyline fill="none" stroke="black" points="25.5,-1 310.5,-1 "/>
<path fill="none" stroke="black" d="M310.5,-1C316.5,-1 322.5,-7 322.5,-13"/>
<polyline fill="none" stroke="black" points="322.5,-13 322.5,-113 "/>
<path fill="none" stroke="black" d="M322.5,-113C322.5,-119 316.5,-125 310.5,-125"/>
<polyline fill="none" stroke="black" points="310.5,-125 25.5,-125 "/>
<path fill="none" stroke="black" d="M25.5,-125C19.5,-125 13.5,-119 13.5,-113"/>
<polyline fill="none" stroke="black" points="13.5,-113 13.5,-13 "/>
<path fill="none" stroke="black" d="M13.5,-13C13.5,-7 19.5,-1 25.5,-1"/>
<text text-anchor="middle" x="168" y="-108.4" font-family="Times Roman,serif" font-size="14.00">ProductCategory</text>
<polyline fill="none" stroke="black" points="13.5,-99 322.5,-99 "/>
<text text-anchor="start" x="21.5" y="-82.4" font-family="Times Roman,serif" font-size="14.00">id :integer</text>
<text text-anchor="start" x="21.5" y="-64.4" font-family="Times Roman,serif" font-size="14.00">product_id :integer</text>
<text text-anchor="start" x="21.5" y="-46.4" font-family="Times Roman,serif" font-size="14.00">category_id :integer</text>
<text text-anchor="start" x="21.5" y="-28.4" font-family="Times Roman,serif" font-size="14.00">created_at :timestamp without time zone</text>
<text text-anchor="start" x="21.5" y="-10.4" font-family="Times Roman,serif" font-size="14.00">updated_at :timestamp without time zone</text>
</g>
<!-- Category&#45;&gt;ProductCategory -->
<g id="edge2" class="edge"><title>Category&#45;&gt;ProductCategory</title>
<path fill="none" stroke="#372361" d="M113.404,-380.639C106.246,-368.363 100.012,-355.252 96,-342 72.8173,-265.433 71.2605,-238.079 96,-162 99.1053,-152.451 103.517,-143.054 108.647,-134.078"/>
<ellipse fill="none" stroke="#372361" cx="115.644" cy="-384.343" rx="4.00002" ry="4.00002"/>
<polygon fill="#372361" stroke="#372361" points="108.813,-133.805 117.844,-127.585 111.404,-129.529 113.995,-125.253 113.995,-125.253 113.995,-125.253 111.404,-129.529 110.147,-122.921 108.813,-133.805 108.813,-133.805"/>
</g>
<!-- Order -->
<g id="node3" class="node"><title>Order</title>
<polyline fill="none" stroke="black" points="442.5,-379 727.5,-379 "/>
<path fill="none" stroke="black" d="M727.5,-379C733.5,-379 739.5,-385 739.5,-391"/>
<polyline fill="none" stroke="black" points="739.5,-391 739.5,-509 "/>
<path fill="none" stroke="black" d="M739.5,-509C739.5,-515 733.5,-521 727.5,-521"/>
<polyline fill="none" stroke="black" points="727.5,-521 442.5,-521 "/>
<path fill="none" stroke="black" d="M442.5,-521C436.5,-521 430.5,-515 430.5,-509"/>
<polyline fill="none" stroke="black" points="430.5,-509 430.5,-391 "/>
<path fill="none" stroke="black" d="M430.5,-391C430.5,-385 436.5,-379 442.5,-379"/>
<text text-anchor="middle" x="585" y="-504.4" font-family="Times Roman,serif" font-size="14.00">Order</text>
<polyline fill="none" stroke="black" points="430.5,-495 739.5,-495 "/>
<text text-anchor="start" x="438.5" y="-478.4" font-family="Times Roman,serif" font-size="14.00">id :integer</text>
<text text-anchor="start" x="438.5" y="-460.4" font-family="Times Roman,serif" font-size="14.00">total :integer</text>
<text text-anchor="start" x="438.5" y="-442.4" font-family="Times Roman,serif" font-size="14.00">client_id :integer</text>
<text text-anchor="start" x="438.5" y="-424.4" font-family="Times Roman,serif" font-size="14.00">zone_id :integer</text>
<text text-anchor="start" x="438.5" y="-406.4" font-family="Times Roman,serif" font-size="14.00">created_at :timestamp without time zone</text>
<text text-anchor="start" x="438.5" y="-388.4" font-family="Times Roman,serif" font-size="14.00">updated_at :timestamp without time zone</text>
</g>
<!-- Payment -->
<g id="node4" class="node"><title>Payment</title>
<polyline fill="none" stroke="black" points="442.5,-172 727.5,-172 "/>
<path fill="none" stroke="black" d="M727.5,-172C733.5,-172 739.5,-178 739.5,-184"/>
<polyline fill="none" stroke="black" points="739.5,-184 739.5,-320 "/>
<path fill="none" stroke="black" d="M739.5,-320C739.5,-326 733.5,-332 727.5,-332"/>
<polyline fill="none" stroke="black" points="727.5,-332 442.5,-332 "/>
<path fill="none" stroke="black" d="M442.5,-332C436.5,-332 430.5,-326 430.5,-320"/>
<polyline fill="none" stroke="black" points="430.5,-320 430.5,-184 "/>
<path fill="none" stroke="black" d="M430.5,-184C430.5,-178 436.5,-172 442.5,-172"/>
<text text-anchor="middle" x="585" y="-315.4" font-family="Times Roman,serif" font-size="14.00">Payment</text>
<polyline fill="none" stroke="black" points="430.5,-306 739.5,-306 "/>
<text text-anchor="start" x="438.5" y="-289.4" font-family="Times Roman,serif" font-size="14.00">id :integer</text>
<text text-anchor="start" x="438.5" y="-271.4" font-family="Times Roman,serif" font-size="14.00">amount :integer</text>
<text text-anchor="start" x="438.5" y="-253.4" font-family="Times Roman,serif" font-size="14.00">type :character varying</text>
<text text-anchor="start" x="438.5" y="-235.4" font-family="Times Roman,serif" font-size="14.00">status :character varying</text>
<text text-anchor="start" x="438.5" y="-217.4" font-family="Times Roman,serif" font-size="14.00">order_id :integer</text>
<text text-anchor="start" x="438.5" y="-199.4" font-family="Times Roman,serif" font-size="14.00">created_at :timestamp without time zone</text>
<text text-anchor="start" x="438.5" y="-181.4" font-family="Times Roman,serif" font-size="14.00">updated_at :timestamp without time zone</text>
</g>
<!-- Order&#45;&gt;Payment -->
<g id="edge10" class="edge"><title>Order&#45;&gt;Payment</title>
<path fill="none" stroke="#e67789" d="M585,-370.588C585,-360.643 585,-350.423 585,-340.352"/>
<ellipse fill="none" stroke="#e67789" cx="585" cy="-374.797" rx="4" ry="4"/>
<ellipse fill="#e67789" stroke="#e67789" cx="585" cy="-336.316" rx="4" ry="4"/>
</g>
<!-- OrderProduct -->
<g id="node7" class="node"><title>OrderProduct</title>
<polyline fill="none" stroke="black" points="487.5,-1 772.5,-1 "/>
<path fill="none" stroke="black" d="M772.5,-1C778.5,-1 784.5,-7 784.5,-13"/>
<polyline fill="none" stroke="black" points="784.5,-13 784.5,-113 "/>
<path fill="none" stroke="black" d="M784.5,-113C784.5,-119 778.5,-125 772.5,-125"/>
<polyline fill="none" stroke="black" points="772.5,-125 487.5,-125 "/>
<path fill="none" stroke="black" d="M487.5,-125C481.5,-125 475.5,-119 475.5,-113"/>
<polyline fill="none" stroke="black" points="475.5,-113 475.5,-13 "/>
<path fill="none" stroke="black" d="M475.5,-13C475.5,-7 481.5,-1 487.5,-1"/>
<text text-anchor="middle" x="630" y="-108.4" font-family="Times Roman,serif" font-size="14.00">OrderProduct</text>
<polyline fill="none" stroke="black" points="475.5,-99 784.5,-99 "/>
<text text-anchor="start" x="483.5" y="-82.4" font-family="Times Roman,serif" font-size="14.00">id :integer</text>
<text text-anchor="start" x="483.5" y="-64.4" font-family="Times Roman,serif" font-size="14.00">order_id :integer</text>
<text text-anchor="start" x="483.5" y="-46.4" font-family="Times Roman,serif" font-size="14.00">product_id :integer</text>
<text text-anchor="start" x="483.5" y="-28.4" font-family="Times Roman,serif" font-size="14.00">created_at :timestamp without time zone</text>
<text text-anchor="start" x="483.5" y="-10.4" font-family="Times Roman,serif" font-size="14.00">updated_at :timestamp without time zone</text>
</g>
<!-- Order&#45;&gt;OrderProduct -->
<g id="edge6" class="edge"><title>Order&#45;&gt;OrderProduct</title>
<path fill="none" stroke="#7e2f72" d="M724.948,-373.226C733.975,-363.786 741.882,-353.393 748,-342 785.849,-271.52 781.812,-234.503 748,-162 743.055,-151.397 736.354,-141.527 728.642,-132.448"/>
<ellipse fill="none" stroke="#7e2f72" cx="722.018" cy="-376.153" rx="4.00002" ry="4.00002"/>
<polygon fill="#7e2f72" stroke="#7e2f72" points="728.635,-132.44 725.285,-121.998 725.288,-128.725 721.942,-125.01 721.942,-125.01 721.942,-125.01 725.288,-128.725 718.598,-128.022 728.635,-132.44 728.635,-132.44"/>
</g>
<!-- Order&#45;&gt;Product -->
<g id="edge8" class="edge"><title>Order&#45;&gt;Product</title>
<path fill="none" stroke="#b0a961" d="M459.201,-373.594C444.525,-364.681 429.423,-355.509 414.408,-346.389"/>
<polygon fill="#b0a961" stroke="#b0a961" points="459.22,-373.606 465.431,-382.643 463.494,-376.202 467.767,-378.797 467.767,-378.797 467.767,-378.797 463.494,-376.202 470.103,-374.951 459.22,-373.606 459.22,-373.606"/>
<polygon fill="#b0a961" stroke="#b0a961" points="414.128,-346.219 407.917,-337.182 409.854,-343.623 405.581,-341.028 405.581,-341.028 405.581,-341.028 409.854,-343.623 403.245,-344.874 414.128,-346.219 414.128,-346.219"/>
</g>
<!-- Zone -->
<g id="node5" class="node"><title>Zone</title>
<polyline fill="none" stroke="black" points="279.5,-577 564.5,-577 "/>
<path fill="none" stroke="black" d="M564.5,-577C570.5,-577 576.5,-583 576.5,-589"/>
<polyline fill="none" stroke="black" points="576.5,-589 576.5,-725 "/>
<path fill="none" stroke="black" d="M576.5,-725C576.5,-731 570.5,-737 564.5,-737"/>
<polyline fill="none" stroke="black" points="564.5,-737 279.5,-737 "/>
<path fill="none" stroke="black" d="M279.5,-737C273.5,-737 267.5,-731 267.5,-725"/>
<polyline fill="none" stroke="black" points="267.5,-725 267.5,-589 "/>
<path fill="none" stroke="black" d="M267.5,-589C267.5,-583 273.5,-577 279.5,-577"/>
<text text-anchor="middle" x="422" y="-720.4" font-family="Times Roman,serif" font-size="14.00">Zone</text>
<polyline fill="none" stroke="black" points="267.5,-711 576.5,-711 "/>
<text text-anchor="start" x="275.5" y="-694.4" font-family="Times Roman,serif" font-size="14.00">id :integer</text>
<text text-anchor="start" x="275.5" y="-676.4" font-family="Times Roman,serif" font-size="14.00">name :character varying</text>
<text text-anchor="start" x="275.5" y="-658.4" font-family="Times Roman,serif" font-size="14.00">price :integer</text>
<text text-anchor="start" x="275.5" y="-640.4" font-family="Times Roman,serif" font-size="14.00">description :character varying</text>
<text text-anchor="start" x="275.5" y="-622.4" font-family="Times Roman,serif" font-size="14.00">dots :character varying</text>
<text text-anchor="start" x="275.5" y="-604.4" font-family="Times Roman,serif" font-size="14.00">created_at :timestamp without time zone</text>
<text text-anchor="start" x="275.5" y="-586.4" font-family="Times Roman,serif" font-size="14.00">updated_at :timestamp without time zone</text>
</g>
<!-- Zone&#45;&gt;Order -->
<g id="edge12" class="edge"><title>Zone&#45;&gt;Order</title>
<path fill="none" stroke="#235313" d="M490.153,-570.45C500.986,-556.693 512.142,-542.525 522.828,-528.954"/>
<ellipse fill="none" stroke="#235313" cx="487.495" cy="-573.826" rx="4.00002" ry="4.00002"/>
<polygon fill="#235313" stroke="#235313" points="522.873,-528.897 532.595,-523.825 525.966,-524.969 529.06,-521.041 529.06,-521.041 529.06,-521.041 525.966,-524.969 525.524,-518.257 522.873,-528.897 522.873,-528.897"/>
</g>
<!-- ApplicationRecord -->
<g id="node6" class="node"><title>ApplicationRecord</title>
<ellipse fill="none" stroke="black" cx="1018" cy="-657" rx="97.7889" ry="18.3848"/>
<text text-anchor="middle" x="1018" y="-653.4" font-family="Times Roman,serif" font-size="14.00">ApplicationRecord</text>
</g>
<!-- Product&#45;&gt;OrderProduct -->
<g id="edge16" class="edge"><title>Product&#45;&gt;OrderProduct</title>
<path fill="none" stroke="#51fe0b" d="M420.975,-162.527C421.317,-162.351 421.659,-162.175 422,-162 443.028,-151.203 465.434,-140.114 487.461,-129.444"/>
<ellipse fill="none" stroke="#51fe0b" cx="417.298" cy="-164.427" rx="4.00002" ry="4.00002"/>
<polygon fill="#51fe0b" stroke="#51fe0b" points="487.534,-129.408 498.496,-129.111 492.037,-127.234 496.539,-125.059 496.539,-125.059 496.539,-125.059 492.037,-127.234 494.582,-121.007 487.534,-129.408 487.534,-129.408"/>
</g>
<!-- Product&#45;&gt;ProductCategory -->
<g id="edge14" class="edge"><title>Product&#45;&gt;ProductCategory</title>
<path fill="none" stroke="#7dcf3f" d="M212.442,-155.302C209.052,-148.261 205.67,-141.237 202.371,-134.386"/>
<ellipse fill="none" stroke="#7dcf3f" cx="214.296" cy="-159.154" rx="4.00002" ry="4.00002"/>
<polygon fill="#7dcf3f" stroke="#7dcf3f" points="202.269,-134.174 201.985,-123.212 200.1,-129.669 197.931,-125.164 197.931,-125.164 197.931,-125.164 200.1,-129.669 193.876,-127.117 202.269,-134.174 202.269,-134.174"/>
</g>
<!-- Client -->
<g id="node10" class="node"><title>Client</title>
<polyline fill="none" stroke="black" points="605.5,-559 890.5,-559 "/>
<path fill="none" stroke="black" d="M890.5,-559C896.5,-559 902.5,-565 902.5,-571"/>
<polyline fill="none" stroke="black" points="902.5,-571 902.5,-743 "/>
<path fill="none" stroke="black" d="M902.5,-743C902.5,-749 896.5,-755 890.5,-755"/>
<polyline fill="none" stroke="black" points="890.5,-755 605.5,-755 "/>
<path fill="none" stroke="black" d="M605.5,-755C599.5,-755 593.5,-749 593.5,-743"/>
<polyline fill="none" stroke="black" points="593.5,-743 593.5,-571 "/>
<path fill="none" stroke="black" d="M593.5,-571C593.5,-565 599.5,-559 605.5,-559"/>
<text text-anchor="middle" x="748" y="-738.4" font-family="Times Roman,serif" font-size="14.00">Client</text>
<polyline fill="none" stroke="black" points="593.5,-729 902.5,-729 "/>
<text text-anchor="start" x="601.5" y="-712.4" font-family="Times Roman,serif" font-size="14.00">id :integer</text>
<text text-anchor="start" x="601.5" y="-694.4" font-family="Times Roman,serif" font-size="14.00">name :character varying</text>
<text text-anchor="start" x="601.5" y="-676.4" font-family="Times Roman,serif" font-size="14.00">address :character varying</text>
<text text-anchor="start" x="601.5" y="-658.4" font-family="Times Roman,serif" font-size="14.00">email :character varying</text>
<text text-anchor="start" x="601.5" y="-640.4" font-family="Times Roman,serif" font-size="14.00">phone :character varying</text>
<text text-anchor="start" x="601.5" y="-622.4" font-family="Times Roman,serif" font-size="14.00">latitude :character varying</text>
<text text-anchor="start" x="601.5" y="-604.4" font-family="Times Roman,serif" font-size="14.00">longitude :character varying</text>
<text text-anchor="start" x="601.5" y="-586.4" font-family="Times Roman,serif" font-size="14.00">created_at :timestamp without time zone</text>
<text text-anchor="start" x="601.5" y="-568.4" font-family="Times Roman,serif" font-size="14.00">updated_at :timestamp without time zone</text>
</g>
<!-- Client&#45;&gt;Order -->
<g id="edge18" class="edge"><title>Client&#45;&gt;Order</title>
<path fill="none" stroke="#b1a293" d="M665.615,-552.376C659.503,-544.614 653.397,-536.86 647.435,-529.289"/>
<ellipse fill="none" stroke="#b1a293" cx="668.321" cy="-555.813" rx="4.00002" ry="4.00002"/>
<polygon fill="#b1a293" stroke="#b1a293" points="647.216,-529.011 644.565,-518.37 644.123,-525.082 641.029,-521.154 641.029,-521.154 641.029,-521.154 644.123,-525.082 637.494,-523.938 647.216,-529.011 647.216,-529.011"/>
</g>
</g>
</svg>
